HIERARCHY
ROOT Hips
{
 OFFSET 0.000000 0.000000 0.000000
 CHANNELS 6 Xposition Yposition Zposition Yrotation Xrotation Zrotation
 JOINT Chest
 {
  OFFSET 0.000000 9.588913 -0.003946
  CHANNELS 3 Yrotation Xrotation Zrotation
  JOINT Chest2
  {
   OFFSET 0.000000 9.541882 0.008053
   CHANNELS 3 Yrotation Xrotation Zrotation
   JOINT Chest3
   {
    OFFSET 0.000000 9.501360 0.000000
    CHANNELS 3 Yrotation Xrotation Zrotation
    JOINT Chest4
    {
     OFFSET 0.000000 9.491660 0.000000
     CHANNELS 3 Yrotation Xrotation Zrotation
     JOINT Neck
     {
      OFFSET 0.000000 14.331917 0.000000
      CHANNELS 3 Yrotation Xrotation Zrotation
      JOINT Head
      {
       OFFSET 0.000000 8.884799 0.017034
       CHANNELS 3 Yrotation Xrotation Zrotation
       End Site
       {
        OFFSET 0.000000 16.896195 0.008993
       }
      }
     }
     JOINT RightCollar
     {
      OFFSET -2.923010 9.499495 0.000000
      CHANNELS 3 Yrotation Xrotation Zrotation
      JOINT RightShoulder
      {
       OFFSET -13.795216 0.000000 0.000000
       CHANNELS 3 Yrotation Xrotation Zrotation
       JOINT RightElbow
       {
        OFFSET -30.272209 0.000000 0.000000
        CHANNELS 3 Yrotation Xrotation Zrotation
        JOINT RightWrist
        {
         OFFSET -24.478199 0.000000 0.000000
         CHANNELS 3 Yrotation Xrotation Zrotation
         End Site
         {
          OFFSET -18.090752 0.000000 0.000000
         }
        }
       }
      }
     }
     JOINT LeftCollar
     {
      OFFSET 2.923010 9.499495 0.000000
      CHANNELS 3 Yrotation Xrotation Zrotation
      JOINT LeftShoulder
      {
       OFFSET 13.795216 0.000000 0.000000
       CHANNELS 3 Yrotation Xrotation Zrotation
       JOINT LeftElbow
       {
        OFFSET 30.272209 0.000000 0.000000
        CHANNELS 3 Yrotation Xrotation Zrotation
        JOINT LeftWrist
        {
         OFFSET 24.478199 0.000000 0.000000
         CHANNELS 3 Yrotation Xrotation Zrotation
         End Site
         {
          OFFSET 18.090752 0.000000 0.000000
         }
        }
       }
      }
     }
    }
   }
  }
 }
 JOINT RightHip
 {
  OFFSET -7.826875 0.019532 0.001973
  CHANNELS 3 Yrotation Xrotation Zrotation
  JOINT RightKnee
  {
   OFFSET 0.000000 -40.546152 -0.001885
   CHANNELS 3 Yrotation Xrotation Zrotation
   JOINT RightAnkle
   {
    OFFSET 0.000000 -39.417092 -0.003189
    CHANNELS 3 Yrotation Xrotation Zrotation
    JOINT RightToe
    {
     OFFSET 0.000000 -7.579396 17.243563
     CHANNELS 3 Yrotation Xrotation Zrotation
     End Site
     {
      OFFSET 0.000000 -1.500329 6.694466
     }
    }
   }
  }
 }
 JOINT LeftHip
 {
  OFFSET 7.826875 0.019532 0.001973
  CHANNELS 3 Yrotation Xrotation Zrotation
  JOINT LeftKnee
  {
   OFFSET 0.000000 -40.546152 -0.001885
   CHANNELS 3 Yrotation Xrotation Zrotation
   JOINT LeftAnkle
   {
    OFFSET 0.000000 -39.417092 -0.003189
    CHANNELS 3 Yrotation Xrotation Zrotation
    JOINT LeftToe
    {
     OFFSET 0.000000 -7.579396 17.243563
     CHANNELS 3 Yrotation Xrotation Zrotation
     End Site
     {
      OFFSET 0.000000 -1.500329 6.694466
     }
    }
   }
  }
 }
}
MOTION
Frames: 5
Frame Time: 0.008333
0.000000 87.345680 0.000000 0.000000 -5.767889 0.000000 0.000000 11.653876 0.000000 0.000000 -5.885988 0.000000 0.000000 -0.000000 0.000000 0.000000 -0.000000 0.000000 0.000000 12.528808 0.000000 0.000000 0.711711 0.000000 0.000000 -0.000000 0.000000 0.000000 -0.000000 0.000000 2.309063 -0.000000 0.000000 -2.309063 -0.000000 -0.000000 0.000000 -0.000000 0.000000 0.000000 0.000000 0.000000 -2.309063 0.000000 0.000000 2.309063 -0.000000 0.000000 0.000000 8.520374 0.000000 0.000000 1.905768 0.000000 -0.000000 -4.658254 0.000000 0.000000 -0.000000 0.000000 0.000000 8.520374 0.000000 0.000000 1.905768 0.000000 -0.000000 -4.658254 0.000000 0.000000 -0.000000 0.000000
15.957870 98.890159 -1.316359 -16.843637 -0.774434 8.751801 4.118492 12.018379 -3.322759 2.635262 6.946741 -0.317279 3.294091 8.685155 -0.346836 2.635232 6.946790 -0.317288 -4.287916 20.738352 -2.044744 -4.135635 -3.595969 -1.213671 3.290656 -5.039748 -7.047952 0.185201 -6.919172 78.777242 30.408983 -3.907209 10.534228 1.004311 -4.447202 -4.430980 -15.301242 -5.634946 0.973186 10.911768 -26.493218 -72.965221 -30.961933 0.132702 -13.867263 -9.763079 -0.678355 5.152940 -6.299296 -1.381802 -21.302502 1.501163 7.439555 0.295556 9.489182 31.847519 23.830897 5.312903 -27.434404 -10.853360 12.483870 -51.207449 -19.047060 -6.369449 80.119253 3.911339 3.707469 -32.125454 -15.163880 0.042296 -0.610873 0.269152
15.837822 98.652911 -1.186146 -17.098244 -0.832409 8.292854 3.996972 11.984275 -3.108557 2.563427 6.902411 -0.312244 3.204190 8.629678 -0.342219 2.563397 6.902455 -0.312253 -4.226241 20.838839 -1.957621 -4.089812 -3.483715 -1.134549 3.296907 -4.882790 -6.873416 -0.214701 -7.075129 79.128287 30.618265 -3.605139 10.652003 1.140604 -4.470495 -4.522070 -15.204051 -5.553614 0.809026 10.995788 -26.657091 -72.918197 -30.632199 0.592580 -13.722971 -9.294963 -0.545847 5.205251 -6.257338 -1.715901 -20.860744 1.511419 8.681138 0.458862 9.508367 30.432516 23.057393 4.716565 -26.841877 -10.300497 12.053556 -50.216037 -18.296623 -5.452000 79.000963 5.142957 3.754384 -32.168067 -15.319854 0.040801 -0.417500 0.276503
15.688921 98.369128 -1.029201 -17.371387 -0.884883 7.791572 3.895921 11.934561 -2.846904 2.496655 6.857700 -0.312677 3.120529 8.573764 -0.344338 2.496626 6.857741 -0.312685 -4.165685 20.939993 -1.877585 -4.043657 -3.370330 -1.062801 3.308310 -4.756817 -6.711065 -0.623317 -7.155952 79.560425 30.828085 -3.317846 10.718496 1.244012 -4.505757 -4.635162 -15.114190 -5.505126 0.676763 11.049472 -26.751757 -72.915171 -30.260793 1.027261 -13.472903 -8.789322 -0.399086 5.285363 -6.324118 -2.113662 -20.376314 1.592172 10.052839 0.633575 9.468928 28.860094 22.392600 4.156317 -26.269876 -9.884322 11.597201 -49.125889 -17.457565 -4.815727 77.722583 6.058304 3.768593 -32.129727 -15.449116 0.031991 -0.272854 0.300013
15.512753 98.047130 -0.849914 -17.666329 -0.935952 7.278211 3.811524 11.877393 -2.557482 2.433032 6.816557 -0.317426 3.040739 8.522340 -0.351761 2.433007 6.816597 -0.317433 -4.110332 21.031305 -1.814515 -3.999197 -3.267733 -1.008056 3.323618 -4.669680 -6.580319 -0.995537 -7.154634 80.057362 31.047155 -3.071376 10.730042 1.314471 -4.553092 -4.761409 -15.030457 -5.507111 0.576086 11.112539 -26.760620 -72.987898 -29.876743 1.451903 -13.138369 -8.259059 -0.244059 5.403409 -6.459715 -2.555359 -19.883333 1.690000 11.533664 0.825043 9.385204 27.171473 21.819061 3.643248 -25.713904 -9.591738 11.173773 -47.953636 -16.588869 -4.448498 76.316086 6.667268 3.752042 -32.022751 -15.553413 0.019016 -0.167444 0.339577
